<?xml version="1.0" encoding="UTF-8" standalone="no"?>
<svg
   xmlns:dc="http://purl.org/dc/elements/1.1/"
   xmlns:cc="http://creativecommons.org/ns#"
   xmlns:rdf="http://www.w3.org/1999/02/22-rdf-syntax-ns#"
   xmlns:svg="http://www.w3.org/2000/svg"
   xmlns="http://www.w3.org/2000/svg"
   xmlns:sodipodi="http://sodipodi.sourceforge.net/DTD/sodipodi-0.dtd"
   xmlns:inkscape="http://www.inkscape.org/namespaces/inkscape"
   inkscape:version="1.0 (4035a4fb49, 2020-05-01)"
   sodipodi:docname="cargaDB.svg"
   xml:space="preserve"
   style="enable-background:new 0 0 198.591 198.591;"
   viewBox="0 0 198.591 198.591"
   height="198.591px"
   width="198.591px"
   y="0px"
   x="0px"
   id="Capa_1"
   version="1.1"><metadata
   id="metadata45"><rdf:RDF><cc:Work
       rdf:about=""><dc:format>image/svg+xml</dc:format><dc:type
         rdf:resource="http://purl.org/dc/dcmitype/StillImage" /><dc:title></dc:title></cc:Work></rdf:RDF></metadata><defs
   id="defs43" /><sodipodi:namedview
   inkscape:current-layer="Capa_1"
   inkscape:window-maximized="1"
   inkscape:window-y="-8"
   inkscape:window-x="-8"
   inkscape:cy="105.50011"
   inkscape:cx="29.508259"
   inkscape:zoom="1.850537"
   showgrid="false"
   id="namedview41"
   inkscape:window-height="1017"
   inkscape:window-width="1920"
   inkscape:pageshadow="2"
   inkscape:pageopacity="0"
   guidetolerance="10"
   gridtolerance="10"
   objecttolerance="10"
   borderopacity="1"
   bordercolor="#666666"
   pagecolor="#ffffff" />
<g
   transform="matrix(0.86206302,0,0,0.85761731,9.111213,27.511703)"
   id="g8">
	<g
   id="g6">
		<path
   id="path2"
   d="m 99.216,33.203 c 9.289,0 16.822,-7.434 16.822,-16.604 0,-9.165 -7.533,-16.6 -16.822,-16.6 -9.291,0 -16.822,7.435 -16.822,16.6 -0.001,9.171 7.531,16.604 16.822,16.604 z" />
		<path
   id="path4"
   d="m 174.872,40.476 c -2.453,-2.212 -6.238,-2.016 -8.461,0.428 -0.088,0.094 -8.761,9.47 -20.775,9.537 -0.043,10e-4 -0.086,10e-4 -0.129,10e-4 -8.207,0 -16.408,-4.338 -24.373,-12.896 -1.301,-1.398 -3.168,-1.867 -4.881,-1.867 -0.004,0 -25.813,-0.028 -34.574,-0.028 -1.605,0 -3.078,0.686 -4.215,1.908 -7.965,8.558 -16.166,12.896 -24.375,12.896 -0.043,0 -0.088,0 -0.131,-0.002 C 40.942,50.386 32.27,41.01 32.202,40.935 c -2.207,-2.471 -6,-2.684 -8.469,-0.478 -2.471,2.208 -2.684,6 -0.477,8.47 0.486,0.545 12.119,13.344 29.471,13.521 0.123,10e-4 0.256,0.002 0.379,0.002 9.021,0 17.76,-3.363 26.004,-10.016 v 137.161 c 0,4.97 4.025,8.996 8.994,8.996 4.969,0 8.992,-4.026 8.992,-8.996 v -67.93 h 4.283 v 67.93 c 0,4.97 4.025,8.996 8.994,8.996 4.969,0 8.994,-4.026 8.994,-8.996 V 52.29 c 8.241,6.741 17.061,10.147 26.143,10.147 0.123,0 0.24,-10e-4 0.361,-0.002 17.352,-0.177 28.981,-12.976 29.469,-13.521 2.2,-2.46 1.985,-6.227 -0.468,-8.438 z" />
	</g>
</g>
<g
   id="g10">
</g>
<g
   id="g12">
</g>
<g
   id="g14">
</g>
<g
   id="g16">
</g>
<g
   id="g18">
</g>
<g
   id="g20">
</g>
<g
   id="g22">
</g>
<g
   id="g24">
</g>
<g
   id="g26">
</g>
<g
   id="g28">
</g>
<g
   id="g30">
</g>
<g
   id="g32">
</g>
<g
   id="g34">
</g>
<g
   id="g36">
</g>
<g
   id="g38">
</g>
<path
   d="m 50.412134,193.71324 c -2.660321,-1.26421 -4.985813,-3.14224 -7.252813,-4.99772 -3.079461,-2.63532 -5.707133,-5.72725 -8.244835,-8.87188 -2.574183,-3.39861 -5.116352,-6.81994 -7.612545,-10.27604 -2.080432,-2.73266 -3.80079,-5.70385 -5.444755,-8.71138 -1.713123,-3.37239 -3.32454,-6.81916 -4.612651,-10.37985 -0.322839,-0.89242 -0.598071,-1.80134 -0.897107,-2.70201 -1.332574,-4.41997 -2.613603,-8.85711 -3.808668,-13.31652 -0.09556,-0.34835 -0.187847,-0.69762 -0.286679,-1.04506 -0.0659,-0.21924 -0.131799,-0.43849 -0.197698,-0.65774 -0.02767,-0.11357 -0.05166,-0.2281 -0.08301,-0.34071 -0.528577,-1.89828 -2.5385595,3.02082 -3.6721485,4.6326 -0.086493,0.12298 0.055875,0.29547 0.083812,0.4432 0.3358176,1.37534 0.7323773,2.72276 1.214493,4.05389 0.7151275,1.98644 1.7508665,3.81726 2.9359345,5.55514 1.21882,1.93649 2.88244,3.49041 4.677533,4.87909 1.838271,1.31752 3.784187,2.45553 5.761295,3.54728 1.536259,0.88031 3.034577,1.82489 4.593568,2.66513 1.134379,0.66952 2.329382,1.23155 3.569116,1.6749 0.844611,0.34375 1.68803,0.69889 2.55671,0.9781 2.390241,0.61965 1.729595,-0.83428 4.419829,-4.38442 0.125385,-0.16547 -0.896675,-1.61233 -0.939796,-1.67648 -2.284802,-3.08806 -4.411598,-6.28457 -6.454776,-9.53604 -1.786123,-2.79538 -3.344481,-5.7218 -4.965505,-8.61247 -1.589617,-3.07207 -2.688986,-6.37424 -3.930457,-9.59697 C 19.787639,121.8632 17.899045,116.63942 16.1272,111.37103 14.515369,106.21402 13.330338,100.93879 12.2745,95.644124 11.405416,91.051178 10.491884,86.467753 9.8584055,81.835053 9.7489886,81.108623 9.6088207,80.141192 9.4785162,79.394612 9.4411802,79.180696 9.3942333,78.968559 9.3544259,78.755089 c -0.014329,-0.07684 0.012129,-0.291064 -0.038307,-0.231347 -3.8482788,4.55642 -4.2813231,2.767284 -3.3821337,5.244384 0.750339,2.233255 1.6260423,4.42146 2.5447646,6.589928 1.0253662,2.29849 2.5061302,4.356045 3.9969402,6.37085 1.385665,1.770785 3.044766,3.305896 4.733145,4.782136 1.288394,1.09894 2.55697,2.22038 3.906797,3.2441 1.185413,0.92258 2.331384,1.88677 3.476306,2.85851 0.873626,0.76518 1.690664,1.57952 2.578817,2.32775 1.972511,1.12877 3.620141,-3.6328 4.202156,-4.41169 0.151434,-0.20266 -0.09478,-1.89098 -0.119974,-2.07517 -0.390188,-2.20889 -1.17079,-4.323498 -1.91779,-6.431326 C 28.498987,94.97563 27.599764,92.954745 26.755368,90.910297 25.55156,87.817654 24.413774,84.700004 23.220205,81.60361 21.486736,76.870224 19.727662,72.146376 18.013494,67.405922 15.815988,61.635684 14.177943,55.690327 12.641277,49.718082 11.270345,44.306861 10.164726,38.834998 9.1127148,33.3546 8.4008646,29.643759 7.9218263,25.898891 7.6537941,22.131446 c -0.020486,-0.376976 -0.052599,-0.753501 -0.061458,-1.13093 -0.00506,-0.215633 0.0041,-1.066211 0.067285,-1.36292 0.017883,-0.08398 0.1652893,-0.299043 0.1112391,-0.232328 -3.6108162,4.456861 -4.8573783,3.121158 -3.2749635,4.633912 0.822936,1.425786 1.5871668,2.887826 2.350931,4.346923 0.8379821,1.566259 1.7784786,3.075024 2.7130414,4.584799 0.9148849,1.358977 1.9969529,2.58505 3.1019369,3.789233 1.500554,1.526765 3.184749,2.853572 4.829695,4.218141 0.403125,0.315062 0.808355,0.627447 1.209373,0.945185 0.267955,0.212308 2.344946,1.8877 2.589905,2.0705 1.473526,1.09962 3.052531,2.04586 4.622097,2.998417 2.230226,1.426181 4.597572,2.612374 7.006059,3.702621 1.001674,0.523806 2.086132,0.844444 3.116391,1.301706 0.340059,0.119008 0.983493,0.568254 1.317939,0.174291 3.865811,-4.553763 3.499519,-2.679559 3.869335,-5.098689 -0.05993,-1.83021 -0.350813,-3.641945 -0.536168,-5.461751 -0.243584,-2.679825 -0.344138,-5.367978 -0.161753,-8.053188 0.248321,-2.993057 0.896997,-5.93163 1.453461,-8.877646 0.512248,-2.623239 1.198753,-5.20652 1.892035,-7.786251 0.773636,-3.156304 1.611027,-6.296469 2.522317,-9.4157534 0.466058,-1.7638676 1.121483,-3.4654186 1.825169,-5.1451294 0.985026,-1.94723105 3.190998,-4.8551758 -2.797814,3.0861626 -0.04275,0.056693 0.145701,0.023968 0.20223,0.066938 0.09515,0.072329 0.158866,0.178615 0.238298,0.2679226 0.683126,1.6837189 1.327097,3.38376 2.014471,5.0687226 0.78225,2.082249 1.779952,4.068865 2.823126,6.029852 0.750106,1.399224 1.418606,2.838428 2.238338,4.199628 0.558523,0.921875 0.906536,1.893209 1.986942,2.282686 0.167047,2.12e-4 0.335963,0.02556 0.501141,6.37e-4 1.073437,-0.161961 2.705301,-1.203541 3.58313,-1.797886 1.139158,-0.868253 2.093598,-1.941553 3.00893,-3.034963 4.40663,-5.263937 2.93916,-3.289425 4.844094,-5.903922 1.550404,-2.237718 2.893967,-4.6099565 4.26738,-6.9581576 1.154812,-2.0478113 2.504886,-3.9759315 3.683538,-6.00814306 0.668153,-1.03602294 1.254183,-2.09925144 1.738223,-3.23097864 0,0 -3.631007,4.32726575 -3.631007,4.32726575 v 0 c -0.471133,1.11159625 -1.036604,2.15893195 -1.69187,3.17573815 -1.151894,1.999531 -2.470707,3.8982463 -3.602164,5.9111644 -1.388291,2.375352 -2.759219,4.767296 -4.327671,7.030009 -1.50124,2.060078 -0.852632,1.127726 2.282744,-2.589512 0.226982,-0.269105 -0.447733,0.543616 -0.681552,0.806801 -0.371447,0.4181 -1.086142,1.166785 -1.502191,1.542633 -0.26322,0.237787 -0.546367,0.452541 -0.819551,0.678811 -0.861319,0.580011 -2.467571,1.585105 -3.524847,1.728428 -0.162757,0.02206 -0.328412,-0.0072 -0.492619,-0.01079 C 57.455018,18.62914 57.132381,17.667517 56.545476,16.750583 55.696972,15.414909 55.044495,13.972816 54.270688,12.594393 53.210724,10.650562 52.202403,8.677072 51.414047,6.60448 50.724944,4.8892113 50.126013,3.1502033 49.503196,1.4122681 47.78304,-0.82683611 45.685963,4.8215606 44.603287,6.6400327 c -0.671313,1.64012 -1.295178,3.3012382 -1.723892,5.0244323 -0.884132,3.12265 -1.739185,6.253887 -2.513894,9.405716 -0.709365,2.586635 -1.42836,5.173958 -1.915482,7.814192 -0.537789,2.949946 -1.169404,5.889304 -1.454114,8.878426 -0.185109,2.693363 -0.06611,5.388234 0.140529,8.078481 0.174756,1.849489 0.449093,3.696283 0.456558,5.556626 -0.40278,2.215378 -0.23459,0.829967 3.410744,-3.577371 0.06295,-0.07611 -0.163769,0.120008 -0.260049,0.142064 -0.377793,0.08655 -0.736942,-0.187625 -1.073564,-0.297676 -1.042188,-0.450675 -2.145556,-0.741473 -3.169714,-1.238157 -2.458086,-1.013032 -4.854739,-2.167785 -7.118874,-3.568173 -2.960663,-1.792545 -5.768144,-3.786079 -8.349827,-6.09937 -1.630591,-1.382211 -3.290392,-2.738859 -4.787825,-4.26804 -1.10453,-1.206231 -2.162145,-2.4543 -3.089331,-3.804257 C 12.215956,27.186977 11.257484,25.696768 10.405259,24.145331 9.6381566,22.667494 8.8950863,21.176065 8.1439916,19.691551 6.6630569,18.021203 7.9582443,19.324206 4.113422,23.764034 c -0.045676,0.05274 -0.069197,0.124768 -0.078957,0.193855 -0.1106479,0.783249 0.070968,1.598346 0.092445,2.376734 0.3581879,3.716944 0.8361849,7.422523 1.5745648,11.085334 1.0998097,5.436868 2.2443913,10.865229 3.6348011,16.236872 1.5033291,5.998439 3.1609601,11.960089 5.3067791,17.765825 1.713927,4.758887 3.432896,9.515957 5.139873,14.277343 1.175318,3.137055 2.242001,6.313006 3.413728,9.451407 0.844077,2.044357 1.749847,4.062439 2.580594,6.111946 0.752801,2.11206 1.556444,4.22773 1.898717,6.45406 0.08729,0.85395 0.124926,0.86747 0.08788,1.64699 -0.0084,0.17579 -0.172009,0.65218 -0.04969,0.52564 7.142077,-7.38845 4.961389,-3.39569 3.091944,-4.28108 -0.906849,-0.72558 -1.739271,-1.52138 -2.617688,-2.28142 -1.14501,-0.9707 -2.284093,-1.94506 -3.475322,-2.85969 -1.354238,-1.018154 -2.636336,-2.123313 -3.939386,-3.205257 -1.705386,-1.458757 -3.3586,-2.994844 -4.747209,-4.765379 -1.501176,-2.009326 -3.010104,-4.043803 -4.001623,-6.365269 -0.924902,-2.179483 -1.842028,-4.373016 -2.4917767,-6.653076 -0.6189891,-2.513837 -0.068719,-1.161761 -3.8768544,3.406541 -0.041493,0.04978 0.065523,0.11283 0.086232,0.174233 0.064892,0.192406 0.1219428,0.387683 0.1698329,0.585009 0.079195,0.326315 0.1466145,0.655457 0.211195,0.984976 0.088656,0.452362 0.1656414,0.906934 0.2484621,1.360401 0.7472299,4.573006 1.6651698,9.115173 2.536364,13.665733 1.0872172,5.298838 2.2209271,10.604378 3.8091211,15.778838 1.835972,5.23871 3.806148,10.4247 5.719814,15.63522 1.13637,3.29839 2.165015,6.67804 3.774926,9.78233 1.651269,2.85324 3.293054,5.71127 5.067262,8.4912 2.074355,3.25377 4.19516,6.47651 6.318784,9.69811 0.15731,0.26653 0.643967,1.04651 0.781865,1.41269 0.04422,0.11742 -0.01728,0.4614 0.06875,0.37007 5.36106,-5.69115 5.104959,-3.74383 2.881482,-4.31694 -0.874863,-0.27518 -1.725088,-0.62549 -2.58429,-0.94523 -1.245259,-0.43265 -2.43225,-1.01336 -3.577858,-1.66448 -1.565148,-0.83615 -3.11106,-1.70902 -4.638823,-2.6112 -1.973749,-1.09628 -3.93673,-2.20838 -5.758168,-3.551 -1.799725,-1.37987 -3.468901,-2.93108 -4.69162,-4.86231 -1.170168,-1.752 -2.190382,-3.60396 -2.904747,-5.59231 -0.466546,-1.35116 -0.840084,-2.72511 -1.160621,-4.11809 -0.300652,-2.28788 0.04134,-0.60474 -3.7369019,3.631 -0.013122,0.0147 0.037411,-0.0508 0.04816,-0.0343 0.057976,0.0891 0.081461,0.19643 0.1213899,0.29497 0.081483,0.2011 0.1683148,0.40017 0.2428436,0.60394 0.1191193,0.3257 0.2252789,0.656 0.3379184,0.98399 1.375808,4.36091 2.624851,8.76036 3.962872,13.13275 1.479396,4.52949 3.186576,8.98948 5.392766,13.22128 1.596804,3.03503 3.340929,5.99019 5.452937,8.70164 2.513951,3.43517 5.100054,6.81432 7.668674,10.20915 2.512174,3.17369 5.053988,6.34457 8.191241,8.93575 2.252408,1.86649 4.552381,3.71666 7.071757,5.21349 0,0 3.644268,-4.34307 3.644268,-4.34307 z"
   id="path920"
   style="fill:#808080" /><path
   style="fill:#808080"
   id="path920-1"
   d="m 150.64129,194.68653 c 2.66032,-1.26421 4.98581,-3.14224 7.25281,-4.99772 3.07947,-2.63532 5.70714,-5.72725 8.24484,-8.87188 2.57418,-3.39861 5.11635,-6.81994 7.61254,-10.27603 2.08044,-2.73266 3.80079,-5.70385 5.44476,-8.71138 1.71312,-3.37239 3.32454,-6.81916 4.61265,-10.37985 0.32284,-0.89242 0.59807,-1.80134 0.89711,-2.70201 1.33257,-4.41997 2.6136,-8.85711 3.80867,-13.31652 0.0956,-0.34835 0.18784,-0.69762 0.28667,-1.04506 0.0659,-0.21924 0.1318,-0.43849 0.1977,-0.65774 0.0277,-0.11357 0.0517,-0.2281 0.083,-0.34071 0.52858,-1.89828 2.53856,3.02082 3.67215,4.6326 0.0865,0.12298 -0.0559,0.29547 -0.0838,0.4432 -0.33582,1.37534 -0.73238,2.72276 -1.21449,4.05389 -0.71513,1.98644 -1.75087,3.81726 -2.93594,5.55514 -1.21882,1.93649 -2.88244,3.49041 -4.67753,4.87909 -1.83827,1.31752 -3.78419,2.45553 -5.76129,3.54728 -1.53626,0.88031 -3.03458,1.82489 -4.59357,2.66513 -1.13438,0.66952 -2.32938,1.23155 -3.56912,1.6749 -0.84461,0.34375 -1.68803,0.69889 -2.55671,0.9781 -2.39024,0.61965 -1.72959,-0.83428 -4.41983,-4.38442 -0.12538,-0.16547 0.89668,-1.61233 0.9398,-1.67648 2.2848,-3.08806 4.4116,-6.28457 6.45477,-9.53604 1.78613,-2.79538 3.34449,-5.7218 4.96551,-8.61247 1.58962,-3.07207 2.68899,-6.37424 3.93046,-9.59697 2.03334,-5.17408 3.92193,-10.39786 5.69378,-15.66625 1.61183,-5.15701 2.79686,-10.43224 3.8527,-15.726903 0.86908,-4.592946 1.78261,-9.176371 2.41609,-13.809071 0.10942,-0.72643 0.24958,-1.693861 0.37989,-2.440441 0.0373,-0.213916 0.0843,-0.426053 0.12409,-0.639523 0.0143,-0.07684 -0.0121,-0.291064 0.0383,-0.231347 3.84828,4.55642 4.28132,2.767284 3.38213,5.244384 -0.75034,2.233255 -1.62604,4.42146 -2.54476,6.589928 -1.02537,2.29849 -2.50613,4.356045 -3.99694,6.370853 -1.38567,1.77078 -3.04477,3.30589 -4.73315,4.78213 -1.28839,1.09894 -2.55697,2.22038 -3.90679,3.2441 -1.18542,0.92258 -2.33139,1.88677 -3.47631,2.85851 -0.87363,0.76518 -1.69066,1.57952 -2.57882,2.32775 -1.97251,1.12877 -3.62014,-3.6328 -4.20215,-4.41169 -0.15144,-0.20266 0.0948,-1.89098 0.11997,-2.07517 0.39019,-2.20889 1.17079,-4.32349 1.91779,-6.43132 0.83616,-2.047587 1.73538,-4.068472 2.57978,-6.11292 1.20381,-3.092643 2.34159,-6.210293 3.53516,-9.306687 1.73347,-4.733386 3.49254,-9.457234 5.20671,-14.197688 2.19751,-5.770238 3.83555,-11.715595 5.37222,-17.68784 1.37093,-5.411221 2.47655,-10.883084 3.52856,-16.363482 0.71185,-3.710841 1.19089,-7.455709 1.45892,-11.223154 0.0205,-0.376976 0.0526,-0.753501 0.0615,-1.13093 0.005,-0.215633 -0.004,-1.066211 -0.0673,-1.36292 -0.0179,-0.08398 -0.16529,-0.299043 -0.11124,-0.232328 3.61082,4.456861 4.85738,3.121158 3.27497,4.633912 -0.82294,1.425786 -1.58717,2.887826 -2.35094,4.346923 -0.83798,1.566259 -1.77847,3.075024 -2.71304,4.584799 -0.91488,1.358977 -1.99695,2.58505 -3.10193,3.789233 -1.50056,1.526765 -3.18475,2.853572 -4.8297,4.218141 -0.40312,0.315062 -0.80835,0.627447 -1.20937,0.945185 -0.26796,0.212308 -2.34495,1.8877 -2.58991,2.0705 -1.47352,1.09962 -3.05253,2.04586 -4.62209,2.998417 -2.23023,1.426181 -4.59758,2.612374 -7.00606,3.702621 -1.00168,0.523806 -2.08613,0.844444 -3.11639,1.301706 -0.34006,0.119008 -0.9835,0.568254 -1.31794,0.174291 -3.86581,-4.553763 -3.49952,-2.679559 -3.86934,-5.098689 0.0599,-1.83021 0.35082,-3.641945 0.53617,-5.461751 0.24358,-2.679825 0.34414,-5.367978 0.16175,-8.053188 -0.24832,-2.993057 -0.89699,-5.93163 -1.45346,-8.877646 -0.51225,-2.623239 -1.19875,-5.20652 -1.89203,-7.786251 -0.77364,-3.156304 -1.61103,-6.296469 -2.52232,-9.4157534 -0.46606,-1.763868 -1.12148,-3.465419 -1.82517,-5.1451299 -0.98502,-1.9472311 -3.191,-4.8551761 2.79782,3.0861629 0.0427,0.05669 -0.14571,0.02397 -0.20223,0.06694 -0.0951,0.07233 -0.15887,0.178615 -0.2383,0.267922 -0.68313,1.68372 -1.3271,3.3837614 -2.01447,5.0687234 -0.78225,2.082249 -1.77996,4.068865 -2.82313,6.029852 -0.75011,1.399224 -1.41861,2.838428 -2.23834,4.199628 -0.55852,0.921875 -0.90653,1.893209 -1.98694,2.282686 -0.16705,2.12e-4 -0.33596,0.02556 -0.50114,6.37e-4 -1.07344,-0.161961 -2.7053,-1.203541 -3.58313,-1.797886 -1.13916,-0.868253 -2.0936,-1.941553 -3.00893,-3.034963 -4.40663,-5.263937 -2.93916,-3.289425 -4.84409,-5.903922 -1.55041,-2.237718 -2.89397,-4.6099564 -4.26738,-6.9581584 -1.15482,-2.047811 -2.50489,-3.9759309 -3.68354,-6.00814297 -0.66815,-1.036023 -1.25418,-2.09925103 -1.73822,-3.23097803 0,0 3.631,4.327265 3.631,4.327265 v 0 c 0.47114,1.1115971 1.03661,2.1589321 1.69187,3.175739 1.1519,1.999531 2.47071,3.898246 3.60217,5.9111644 1.38829,2.375352 2.75922,4.767296 4.32767,7.030009 1.50124,2.060078 0.85263,1.127726 -2.28275,-2.589512 -0.22698,-0.269105 0.44774,0.543616 0.68156,0.806801 0.37144,0.4181 1.08614,1.166785 1.50219,1.542633 0.26322,0.237787 0.54636,0.452541 0.81955,0.678811 0.86132,0.580011 2.46757,1.585105 3.52484,1.728428 0.16276,0.02206 0.32842,-0.0072 0.49262,-0.01079 1.10395,-0.372495 1.42658,-1.334118 2.01349,-2.251052 0.8485,-1.335674 1.50098,-2.777767 2.27478,-4.15619 1.05997,-1.943831 2.06829,-3.9173214 2.85665,-5.9899134 0.6891,-1.715269 1.28803,-3.454277 1.91085,-5.1922119 1.72015,-2.23910407 3.81723,3.4092929 4.89991,5.2277649 0.67131,1.64012 1.29517,3.3012384 1.72389,5.0244324 0.88413,3.12265 1.73918,6.253887 2.51389,9.405716 0.70937,2.586635 1.42836,5.173958 1.91548,7.814192 0.53779,2.949946 1.16941,5.889304 1.45412,8.878426 0.18511,2.693363 0.0661,5.388234 -0.14053,8.078481 -0.17476,1.849489 -0.44909,3.696283 -0.45656,5.556626 0.40278,2.215378 0.23459,0.829967 -3.41074,-3.577371 -0.063,-0.07611 0.16377,0.120008 0.26005,0.142064 0.37779,0.08655 0.73694,-0.187625 1.07356,-0.297676 1.04219,-0.450675 2.14556,-0.741473 3.16971,-1.238157 2.45809,-1.013032 4.85474,-2.167785 7.11888,-3.568173 2.96066,-1.792545 5.76814,-3.786079 8.34982,-6.09937 1.6306,-1.382211 3.2904,-2.738859 4.78783,-4.26804 1.10453,-1.206231 2.16214,-2.4543 3.08933,-3.804257 0.9386,-1.499949 1.89707,-2.990158 2.74929,-4.541595 0.76711,-1.477837 1.51018,-2.969266 2.26127,-4.45378 1.48094,-1.670348 0.18575,-0.367345 4.03057,4.072483 0.0457,0.05274 0.0692,0.124768 0.079,0.193855 0.11065,0.783249 -0.071,1.598346 -0.0924,2.376734 -0.35819,3.716944 -0.83618,7.422523 -1.57456,11.085334 -1.09981,5.436868 -2.2444,10.865229 -3.63481,16.236872 -1.50332,5.998439 -3.16096,11.960089 -5.30677,17.765825 -1.71393,4.758887 -3.4329,9.515957 -5.13988,14.277343 -1.17532,3.137055 -2.242,6.313006 -3.41373,9.451407 -0.84407,2.044353 -1.74984,4.062441 -2.58059,6.111941 -0.7528,2.11206 -1.55644,4.22773 -1.89872,6.45406 -0.0873,0.85395 -0.12492,0.86747 -0.0879,1.64699 0.008,0.17579 0.17201,0.65218 0.0497,0.52564 -7.14207,-7.38845 -4.96139,-3.39569 -3.09194,-4.28108 0.90685,-0.72558 1.73927,-1.52138 2.61769,-2.28142 1.14501,-0.9707 2.28409,-1.94506 3.47532,-2.85969 1.35424,-1.01815 2.63634,-2.123308 3.93939,-3.205248 1.70538,-1.458761 3.3586,-2.994848 4.7472,-4.765383 1.50118,-2.009326 3.01011,-4.043803 4.00163,-6.365269 0.9249,-2.179483 1.84203,-4.373016 2.49177,-6.653076 0.61899,-2.513837 0.0687,-1.161761 3.87686,3.406541 0.0415,0.04978 -0.0655,0.11283 -0.0862,0.174233 -0.0649,0.192406 -0.12194,0.387683 -0.16983,0.585009 -0.0792,0.326315 -0.14662,0.655457 -0.2112,0.984976 -0.0887,0.452362 -0.16564,0.906934 -0.24846,1.360401 -0.74723,4.573006 -1.66517,9.115173 -2.53637,13.665736 -1.08721,5.29883 -2.22092,10.60437 -3.80912,15.77883 -1.83597,5.23871 -3.80614,10.4247 -5.71981,15.63522 -1.13637,3.29839 -2.16502,6.67804 -3.77493,9.78233 -1.65127,2.85324 -3.29305,5.71127 -5.06726,8.4912 -2.07435,3.25377 -4.19516,6.47651 -6.31878,9.69811 -0.15731,0.26653 -0.64397,1.04651 -0.78187,1.41269 -0.0442,0.11742 0.0173,0.4614 -0.0687,0.37007 -5.36106,-5.69115 -5.10496,-3.74383 -2.88148,-4.31694 0.87486,-0.27518 1.72509,-0.62549 2.58429,-0.94523 1.24526,-0.43265 2.43225,-1.01336 3.57786,-1.66448 1.56515,-0.83615 3.11106,-1.70902 4.63882,-2.6112 1.97375,-1.09628 3.93673,-2.20838 5.75817,-3.551 1.79972,-1.37987 3.4689,-2.93108 4.69162,-4.86231 1.17017,-1.752 2.19038,-3.60396 2.90475,-5.59231 0.46654,-1.35116 0.84008,-2.72511 1.16062,-4.11809 0.30065,-2.28788 -0.0413,-0.60474 3.7369,3.631 0.0131,0.0147 -0.0374,-0.0508 -0.0482,-0.0343 -0.058,0.0891 -0.0815,0.19643 -0.12139,0.29497 -0.0815,0.2011 -0.16832,0.40017 -0.24284,0.60394 -0.11912,0.3257 -0.22528,0.656 -0.33792,0.98399 -1.37581,4.36091 -2.62485,8.76036 -3.96287,13.13275 -1.4794,4.52949 -3.18658,8.98948 -5.39277,13.22128 -1.5968,3.03503 -3.34093,5.99019 -5.45294,8.70163 -2.51395,3.43517 -5.10005,6.81432 -7.66867,10.20915 -2.51218,3.17369 -5.05399,6.34457 -8.19124,8.93575 -2.25241,1.86649 -4.55238,3.71666 -7.07176,5.21349 0,0 -3.64427,-4.34307 -3.64427,-4.34307 z" /><path
   id="path937"
   d="m 43.190761,195.30983 c -4.926685,-3.6345 -8.252472,-7.24675 -15.253364,-16.5672 -8.600147,-11.44957 -11.190969,-16.22197 -14.600038,-26.89388 -0.94775,-2.96688 -2.312905,-7.02784 -3.033677,-9.02436 -2.0003543,-5.54093 -2.0018724,-5.59576 -0.232428,-8.39425 l 1.529259,-2.41862 0.822057,2.8272 c 0.452131,1.55496 0.916133,3.1711 1.031116,3.59142 0.744654,2.72209 4.647196,7.72956 7.615699,9.77195 2.177353,1.49805 8.143038,4.93924 8.562737,4.93924 0.180437,0 -0.878042,-1.91753 -2.352176,-4.26118 -4.279565,-6.80385 -5.905046,-10.08724 -8.30657,-16.77887 -1.239734,-3.45441 -3.067637,-8.50877 -4.062005,-11.23191 -3.137572,-8.59244 -4.601913,-14.48236 -7.4448688,-29.944967 L 5.8980616,82.393782 7.3261765,80.798515 c 0.7854636,-0.877398 1.5350727,-1.64175 1.6657983,-1.698558 0.1307256,-0.05681 0.5427877,0.888908 0.9156932,2.101599 1.073928,3.492415 3.451277,8.089385 5.685303,10.993398 2.072739,2.694357 9.918508,9.668476 10.137565,9.011306 0.06479,-0.19438 -0.420539,-1.61365 -1.078519,-3.153927 C 22.523476,93.06959 13.27509,67.033067 11.695508,61.576516 8.6017571,50.889379 5.5348975,36.753187 4.6383583,29.047726 4.3385789,26.471219 4.1284128,24.123963 4.1713224,23.831602 c 0.04291,-0.292363 0.7152453,-1.236903 1.4940792,-2.098979 0.7788339,-0.862076 1.4160616,-1.738865 1.4160616,-1.948419 0,-1.173478 0.9597019,0.08783 2.8822029,3.787989 1.1913519,2.292949 3.1366039,5.382096 4.3227809,6.864771 4.052105,5.064976 12.807261,11.818755 19.35168,14.928006 1.794444,0.852539 3.327936,1.550071 3.407757,1.550071 0.07982,0 0.22218,-2.880146 0.316351,-6.400325 0.194901,-7.285564 0.666335,-9.932745 3.990073,-22.40491 2.343176,-8.7926537 3.347221,-11.6382811 5.164291,-14.6364303 1.20205,-1.9833747 2.09555,-2.71595568 2.606847,-2.1373554 0.145377,0.1645096 0.755784,1.6747006 1.356467,3.35598 1.220972,3.4174439 5.092531,11.1805187 6.526792,13.0872317 0.989613,1.315598 2.201104,1.592363 3.627861,0.828787 0.424504,-0.227187 0.847285,-0.337605 0.939518,-0.245374 0.34992,0.349921 -3.024434,3.321439 -4.684014,4.124828 l -1.733972,0.839402 -0.895847,-0.91104 c -1.102407,-1.121103 -5.058362,-8.71211 -6.498493,-12.4698364 -0.583935,-1.5236595 -1.173873,-2.77029 -1.310974,-2.77029 -0.410499,0 -4.50733,16.2543514 -5.393289,21.3981024 -0.690523,4.00908 -0.786663,5.666409 -0.598475,10.316942 0.123312,3.047319 0.333119,6.233626 0.466237,7.080685 0.227023,1.444594 0.118544,1.686133 -1.749143,3.894657 l -1.991177,2.354552 -1.861923,-0.733901 C 26.297215,47.929109 14.243444,39.213941 10.069424,33.227793 9.4363301,32.319844 8.8459928,31.649328 8.7575632,31.737758 c -0.5058255,0.505825 4.1784808,20.605718 6.6538708,28.551097 1.659923,5.327936 9.095735,25.625075 11.550395,31.528499 2.412622,5.802324 3.7686,9.791576 4.103092,12.071186 0.288254,1.9645 0.241075,2.14391 -0.994473,3.78183 -1.969433,2.61079 -2.086774,2.61815 -4.762534,0.29866 -1.302911,-1.12944 -3.676239,-3.11062 -5.274063,-4.40263 -1.597825,-1.29202 -3.982757,-3.43342 -5.299849,-4.75868 l -2.394713,-2.409568 0.278776,1.719491 c 1.426997,8.801717 9.202805,31.400247 13.782547,40.055677 2.238668,4.23094 6.91426,11.69956 9.836944,15.71316 1.894666,2.60186 2.144782,3.34771 1.23918,3.69522 -0.305555,0.11725 -0.903997,0.80375 -1.32987,1.52556 -0.425874,0.7218 -1.035477,1.41258 -1.354675,1.53507 -0.936388,0.35933 -5.309252,-1.59865 -11.056929,-4.95081 -2.94545,-1.71784 -5.493839,-3.18187 -5.663086,-3.2534 -0.474611,-0.20057 1.094031,3.54752 3.203085,7.65342 5.765199,11.22365 18.937194,27.44179 26.023171,32.04126 1.418579,0.92079 2.572629,1.76666 2.564555,1.87971 -0.0081,0.11304 -0.738858,1.02201 -1.623963,2.01992 l -1.609283,1.8144 z"
   style="fill:#ffff00;stroke:#ffff00;stroke-width:0.382109" /><path
   id="path939"
   d=""
   style="fill:#ffff00;stroke:#ffff00;stroke-width:0.382109" /><path
   id="path941"
   d="m 152.69718,196.79728 c -0.85564,-0.99826 -1.55681,-1.93239 -1.55817,-2.07585 -0.001,-0.14345 0.34972,-0.37261 0.78016,-0.50922 1.48784,-0.47223 6.78192,-4.77236 9.74822,-7.91804 4.4889,-4.76033 13.76327,-17.31432 16.93993,-22.93025 1.53501,-2.71371 4.64347,-9.56865 4.434,-9.77811 -0.0847,-0.0847 -2.58048,1.26472 -5.54628,2.99861 -6.17375,3.60937 -10.51355,5.46783 -11.51574,4.93147 -0.35913,-0.1922 -0.75354,-0.66634 -0.87647,-1.05364 -0.12292,-0.3873 -0.638,-1.09359 -1.1446,-1.56952 -0.57458,-0.53979 -0.8325,-1.10159 -0.68557,-1.49335 0.12954,-0.3454 1.81533,-2.94932 3.7462,-5.78648 3.84664,-5.65213 7.69204,-12.16258 9.33794,-15.80956 1.3241,-2.93395 6.32416,-16.24142 8.20157,-21.82818 1.41197,-4.2017 4.02485,-14.403929 4.02485,-15.715381 0,-0.492202 -0.7521,0.03764 -2.57923,1.817081 -2.09764,2.04285 -10.20435,9.01069 -12.1285,10.42461 -0.26001,0.19107 -0.73269,0.24764 -1.0504,0.12573 -0.89742,-0.34437 -2.96521,-3.64692 -2.96521,-4.73585 0,-1.75211 1.17177,-5.57495 3.31256,-10.807125 4.08579,-9.985811 11.14817,-29.312301 12.99436,-35.559588 2.40872,-8.150805 6.53987,-26.190527 6.09874,-26.631658 -0.0835,-0.08354 -0.77756,0.70045 -1.54227,1.742194 -2.48697,3.387936 -9.51843,9.352516 -14.9407,12.67375 -3.26803,2.001727 -10.86742,5.717951 -11.65432,5.699147 -0.31524,-0.0075 -1.34694,-0.899167 -2.29266,-1.98141 l -1.71949,-1.967716 0.18973,-2.886967 c 0.10435,-1.587835 0.18889,-5.552181 0.18787,-8.80966 -0.002,-4.995354 -0.16624,-6.700453 -1.05182,-10.890106 -1.40753,-6.658981 -4.67737,-18.7677125 -4.94677,-18.3186722 -0.11865,0.1977532 -0.85264,1.9070922 -1.63111,3.7985322 -1.41817,3.445748 -4.27665,9.014873 -5.63861,10.985632 -1.18903,1.720527 -3.10985,1.197222 -6.25843,-1.705038 -1.93671,-1.785192 -2.17018,-2.486863 -0.54844,-1.648228 1.61226,0.833734 2.52715,0.724239 3.41867,-0.409149 1.17321,-1.491486 5.2411,-9.6326574 6.70445,-13.4177807 0.70911,-1.8341862 1.48273,-3.3993647 1.71916,-3.4781745 1.91526,-0.6384203 4.99728,6.9409858 8.59453,21.1360072 2.33717,9.222616 2.95907,13.217225 2.95954,19.009921 3.2e-4,3.946402 0.11922,5.253998 0.47775,5.253998 0.76657,0 7.45236,-3.515043 10.07795,-5.298464 3.16535,-2.150055 8.59497,-6.723371 10.85986,-9.147152 2.11349,-2.261764 4.60779,-6.030357 6.54281,-9.8854 0.75695,-1.508023 1.53254,-2.838442 1.72354,-2.956488 0.191,-0.118046 0.56246,0.304861 0.82545,0.939793 0.263,0.634932 0.91722,1.499768 1.45382,1.921857 1.22,0.959653 1.2577,1.405621 0.59511,7.039896 -0.88771,7.548644 -3.64111,20.345285 -6.65955,30.950826 -1.80519,6.342692 -10.35425,30.652029 -13.14919,37.389859 -0.77163,1.860194 -1.31544,3.469684 -1.20847,3.576654 0.29623,0.29623 5.4842,-4.074159 8.09271,-6.817377 3.75642,-3.950414 5.82928,-7.47545 7.61044,-12.942088 0.94013,-2.885404 0.9679,-2.910222 1.79482,-1.604193 0.40253,0.635753 1.15976,1.436279 1.68274,1.778947 0.52298,0.342671 0.85014,0.786036 0.72701,0.985256 -0.12312,0.19922 -0.90817,4.103507 -1.74456,8.676193 -3.07006,16.784712 -3.921,19.946632 -9.59001,35.634762 -4.36167,12.07024 -5.5033,14.54773 -9.91908,21.52573 -1.44083,2.27688 -2.6197,4.3113 -2.6197,4.52094 0,0.20965 0.55883,0.0483 1.24185,-0.35858 0.68302,-0.40686 2.69404,-1.58154 4.46892,-2.6104 6.11752,-3.54616 9.53823,-7.99734 11.50318,-14.96847 0.43111,-1.52949 0.93068,-2.69014 1.11015,-2.57923 0.17946,0.11092 0.88379,1.18948 1.56516,2.3968 l 1.23885,2.19513 -0.61186,2.10359 c -3.88343,13.35125 -8.39815,24.55484 -12.38501,30.73423 -3.04787,4.72402 -12.05521,16.37514 -15.19593,19.65614 -2.6774,2.79699 -9.09161,8.07428 -9.81377,8.07428 -0.14134,0 -0.95705,-0.81676 -1.81268,-1.81502 z"
   style="fill:#ffff00;stroke:#ffff00;stroke-width:0.382109" /><path
   id="path943"
   d="m 63.98346,15.972716 c 0,-0.02197 0.338043,-0.572462 0.751206,-1.223317 0.413163,-0.650856 1.430491,-2.341624 2.260728,-3.757264 0.830237,-1.4156394 1.939622,-3.2616861 2.4653,-4.1023258 1.709358,-2.7335287 2.564542,-4.1853454 3.038566,-5.1584711 0.388492,-0.7975381 0.719599,-1.259513 2.005255,-2.7978183 0.846959,-1.0134002 1.558712,-1.8237612 1.581671,-1.8008022 0.107197,0.1071964 -0.819661,1.7110015 -3.04404,5.2673112 -0.657248,1.0507997 -1.787496,2.9207454 -2.511663,4.155435 -2.708152,4.6173432 -3.839037,6.3219302 -5.543125,8.3551692 -0.846669,1.010206 -1.003898,1.176549 -1.003898,1.062083 z"
   style="fill:#ffff00;stroke:#ffff00;stroke-width:0.0955272" /><path
   id="path945"
   d="m 136.23976,16.094074 c -1.68458,-1.961327 -2.95634,-3.858579 -5.52946,-8.2489924 -0.83139,-1.4185796 -1.98497,-3.3315126 -2.5635,-4.2509623 -2.10585,-3.34679459 -3.29438,-5.3994779 -3.18798,-5.5058789 0.0228,-0.022821 0.73421,0.7875397 1.58085,1.80080223 1.28239,1.53476477 1.61719,2.00175717 2.00564,2.79756787 0.4651,0.9528441 1.63855,2.9433064 3.18901,5.4093677 0.45012,0.7159327 1.48278,2.4354228 2.2948,3.8210898 0.81201,1.385666 1.82797,3.07323 2.25768,3.75014 0.42971,0.676911 0.7646,1.247437 0.74421,1.267834 -0.0204,0.0204 -0.37646,-0.358038 -0.79125,-0.840968 z"
   style="fill:#ffff00;stroke:#ffff00;stroke-width:0.0955272" /></svg>
